<svg width="280" height="40" viewBox="0 0 280 40" fill="none" xmlns="http://www.w3.org/2000/svg">
<g clip-path="url(#clip0_3_966)">
<g clip-path="url(#clip1_3_966)">
<path d="M131.195 20.5131C131.195 26.0653 126.852 30.1566 121.522 30.1566C116.191 30.1566 111.848 26.0653 111.848 20.5131C111.848 14.9218 116.191 10.8696 121.522 10.8696C126.852 10.8696 131.195 14.9218 131.195 20.5131ZM126.961 20.5131C126.961 17.0435 124.443 14.6696 121.522 14.6696C118.6 14.6696 116.082 17.0435 116.082 20.5131C116.082 23.9479 118.6 26.3566 121.522 26.3566C124.443 26.3566 126.961 23.9435 126.961 20.5131Z" fill="#EA4335"/>
<path d="M152.065 20.5131C152.065 26.0653 147.721 30.1566 142.391 30.1566C137.06 30.1566 132.717 26.0653 132.717 20.5131C132.717 14.9262 137.06 10.8696 142.391 10.8696C147.721 10.8696 152.065 14.9218 152.065 20.5131ZM147.83 20.5131C147.83 17.0435 145.312 14.6696 142.391 14.6696C139.469 14.6696 136.952 17.0435 136.952 20.5131C136.952 23.9479 139.469 26.3566 142.391 26.3566C145.312 26.3566 147.83 23.9435 147.83 20.5131Z" fill="#FF9900"/>
<path d="M172.065 11.4522V28.7653C172.065 35.887 167.865 38.7957 162.9 38.7957C158.226 38.7957 155.413 35.6696 154.352 33.1131L158.039 31.5783C158.696 33.1479 160.304 35.0001 162.896 35.0001C166.074 35.0001 168.043 33.0392 168.043 29.3479V27.9609H167.896C166.948 29.1305 165.122 30.1522 162.817 30.1522C157.996 30.1522 153.578 25.9522 153.578 20.5479C153.578 15.1044 157.996 10.8696 162.817 10.8696C165.117 10.8696 166.943 11.8914 167.896 13.0262H168.043V11.4566H172.065V11.4522ZM168.343 20.5479C168.343 17.1522 166.078 14.6696 163.196 14.6696C160.274 14.6696 157.826 17.1522 157.826 20.5479C157.826 23.9088 160.274 26.3566 163.196 26.3566C166.078 26.3566 168.343 23.9088 168.343 20.5479Z" fill="#4285F4"/>
<path d="M178.695 1.3042V29.5651H174.564V1.3042H178.695Z" fill="#34A853"/>
<path d="M194.791 23.687L198.078 25.8783C197.017 27.4478 194.461 30.1522 190.043 30.1522C184.565 30.1522 180.474 25.9174 180.474 20.5087C180.474 14.7739 184.6 10.8652 189.569 10.8652C194.574 10.8652 197.021 14.8478 197.821 17L198.261 18.0957L185.369 23.4348C186.356 25.3696 187.891 26.3565 190.043 26.3565C192.2 26.3565 193.695 25.2957 194.791 23.687ZM184.674 20.2174L193.291 16.6391C192.817 15.4348 191.391 14.5957 189.713 14.5957C187.561 14.5957 184.565 16.4957 184.674 20.2174Z" fill="#EA4335"/>
<path d="M96.2123 18.0046V13.9133H109.999C110.134 14.6263 110.204 15.4698 110.204 16.3829C110.204 19.4524 109.365 23.2481 106.66 25.9524C104.03 28.6915 100.669 30.1524 96.2167 30.1524C87.9645 30.1524 81.0254 23.4307 81.0254 15.1785C81.0254 6.92633 87.9645 0.20459 96.2167 0.20459C100.782 0.20459 104.034 1.99589 106.478 4.33068L103.591 7.21763C101.838 5.57416 99.4645 4.29589 96.2123 4.29589C90.1863 4.29589 85.4732 9.15242 85.4732 15.1785C85.4732 21.2046 90.1863 26.0611 96.2123 26.0611C100.121 26.0611 102.347 24.4915 103.773 23.0655C104.93 21.9089 105.691 20.2568 105.991 18.0002L96.2123 18.0046Z" fill="#4285F4"/>
</g>
</g>
<defs>
<clipPath id="clip0_3_966">
<rect width="118.25" height="40" fill="white" transform="translate(80.875)"/>
</clipPath>
<clipPath id="clip1_3_966">
<rect width="118.25" height="40" fill="white" transform="translate(80.875)"/>
</clipPath>
</defs>
</svg>
