<svg width="48" height="48" viewBox="0 0 48 48" fill="none" xmlns="http://www.w3.org/2000/svg">
<rect width="48" height="48" rx="6" fill="#6366F1"/>
<path d="M23.049 14.9271C23.349 14.0061 24.652 14.0061 24.951 14.9271L26.47 19.6011C26.5353 19.8016 26.6624 19.9763 26.833 20.1002C27.0037 20.2241 27.2091 20.2909 27.42 20.2911H32.335C33.304 20.2911 33.706 21.5311 32.923 22.1011L28.947 24.9891C28.776 25.1131 28.6487 25.2881 28.5833 25.4889C28.5179 25.6898 28.5178 25.9062 28.583 26.1071L30.103 30.7811C30.403 31.7021 29.348 32.4691 28.563 31.8991L24.587 29.0111C24.4161 28.8869 24.2102 28.8199 23.999 28.8199C23.7877 28.8199 23.5819 28.8869 23.411 29.0111L19.435 31.8991C18.651 32.4691 17.597 31.7021 17.896 30.7811L19.415 26.1071C19.4801 25.9062 19.48 25.6898 19.4146 25.4889C19.3493 25.2881 19.2219 25.1131 19.051 24.9891L14.98 21.8201C14.197 21.2501 14.6 20.0101 15.568 20.0101H20.482C20.693 20.0101 20.8987 19.9434 21.0695 19.8195C21.2403 19.6955 21.3675 19.5207 21.433 19.3201L22.952 14.6461L23.049 14.9271Z" stroke="white" stroke-width="2" stroke-linecap="round" stroke-linejoin="round"/>
</svg>
