<svg width="160" height="40" viewBox="0 0 160 40" fill="none" xmlns="http://www.w3.org/2000/svg">
<mask id="mask0_3014_301" style="mask-type:luminance" maskUnits="userSpaceOnUse" x="0" y="0" width="160" height="40">
<path d="M159.696 0H0V39.8648H159.696V0Z" fill="white"/>
</mask>
<g mask="url(#mask0_3014_301)">
<path fill-rule="evenodd" clip-rule="evenodd" d="M7.23944 0C4.79437 0.180282 2.60282 1.47042 1.2507 3.52113C0.585916 4.54085 0.169014 5.69014 0.0225352 6.94648C0 7.12113 0 32.7662 0 32.7662L0.0394366 33.0592C0.35493 35.3521 1.5662 37.307 3.46479 38.5746C4.50141 39.2676 5.62254 39.6732 6.96901 39.8423C7.2 39.8704 32.5352 39.8873 33.0535 39.8197C35.7972 39.4704 38.1577 37.6845 39.2451 35.1437C39.5831 34.3493 39.7803 33.5324 39.8479 32.6479C39.8648 32.4563 39.8479 7.12676 39.8254 6.90141C39.707 5.97747 39.4704 5.1831 39.0986 4.4C38.1521 2.43944 36.4056 0.940845 34.3211 0.315493C33.893 0.185915 33.4254 0.0901408 32.907 0.0225352C32.6761 0 7.35211 0 7.23944 0ZM16.6704 6.61972C16.4338 6.69859 16.2873 6.72113 15.9549 6.72113C15.769 6.72113 15.5775 6.73239 15.4648 6.7493C15.3634 6.7662 15.1944 6.77746 15.0873 6.77746C14.8901 6.77746 14.5465 6.82254 14.2254 6.88451C13.9437 6.94085 13.4535 7.11549 13.1944 7.24507C13.0704 7.31268 12.9127 7.39155 12.8563 7.41972C12.7606 7.47042 12.7268 7.47606 12.5915 7.47606C12.507 7.47606 12.2986 7.46479 12.1296 7.44789C11.8535 7.41972 11.8141 7.41408 11.7634 7.36901C11.6676 7.29577 11.5211 7.22817 11.4535 7.22817C11.3352 7.22817 11.2845 7.27887 11.1606 7.53239C11.0028 7.85352 10.9183 7.96056 10.6197 8.18028C10.1352 8.54085 9.92676 8.92394 9.89859 9.49296C9.88732 9.76901 9.88169 9.78592 9.81972 9.84225C9.74085 9.91549 8.98592 10.4845 8.89577 10.5296C8.8507 10.5577 8.7831 10.6197 8.73239 10.693C8.68169 10.7606 8.56901 10.9014 8.47324 11.0141C8.19718 11.3408 8.14085 11.431 8.0169 11.7634C7.97746 11.8704 7.85916 12.1127 7.76901 12.2986C7.43662 12.9465 7.42535 12.9577 7.42535 13.0704C7.42535 13.1437 7.44225 13.2169 7.48169 13.3183C7.62254 13.6676 7.65634 13.9549 7.60563 14.3155C7.5493 14.693 7.49859 14.8507 7.31268 15.2338C7.2169 15.431 7.13803 15.5944 7.13803 15.6C7.13803 15.6056 7.1662 15.6338 7.2 15.6563C7.33521 15.7521 7.41408 15.893 7.41408 16.0676C7.41408 16.2028 7.45352 16.3493 7.52113 16.4676C7.5493 16.5127 7.78592 16.7718 8.04507 17.0366C8.42817 17.4254 8.53521 17.5493 8.58592 17.6451C8.70423 17.8704 8.82254 18.062 8.89577 18.1296C8.99155 18.2254 9.41409 18.5408 9.67887 18.7155C9.91549 18.8732 10.2986 19.093 10.5465 19.2225C10.7493 19.3239 10.8676 19.3352 11.0535 19.2563C11.4254 19.1042 11.4704 19.093 12.2366 19.0986C12.9577 19.0986 12.9183 19.1099 13.493 18.9014C13.893 18.7606 14.1014 18.7042 14.3718 18.6648C14.8507 18.5972 14.9296 18.6366 15.1549 19.0141C15.2563 19.1887 15.3127 19.2507 15.4141 19.3014C15.4817 19.3352 15.5042 19.3352 15.6789 19.3239C15.7859 19.3127 15.9775 19.307 16.1127 19.307C16.3268 19.307 16.3606 19.307 16.4451 19.3465C16.5577 19.3972 16.6254 19.4648 16.6817 19.5606C16.7606 19.707 16.7211 20.062 16.5521 20.693C16.4451 21.0817 16.462 21.2845 16.6197 21.5268C16.6479 21.5718 16.8225 21.7634 16.9972 21.9549C17.1718 22.1465 17.3577 22.3549 17.4085 22.4225C17.5944 22.6648 17.8479 23.369 17.9324 23.8535C17.9606 24.0113 17.9775 24.1577 17.9775 24.1803C17.9775 24.2028 18.0056 24.3099 18.0394 24.4113C18.1408 24.7099 18.1239 24.862 17.9662 25.0817C17.6225 25.5662 17.4592 26.107 17.431 26.8732C17.4141 27.2901 17.4366 27.3577 17.769 27.9155C18.0958 28.462 18.2479 28.7944 18.3211 29.1099C18.338 29.1944 18.3887 29.4648 18.4225 29.7183C18.4958 30.2423 18.5915 30.693 18.6592 30.8338C18.6817 30.8845 18.7606 30.9972 18.8282 31.0817C19.0141 31.3127 19.1944 31.6 19.3521 31.9211C19.6225 32.4676 19.6789 32.6704 19.662 32.9465C19.6338 33.3239 19.7746 33.6056 20.062 33.7408C20.2366 33.8197 20.4056 33.8141 20.8789 33.707C21.3296 33.6056 21.6169 33.5662 21.893 33.5662C22.1127 33.5662 22.4958 33.5155 22.7099 33.4535C22.9239 33.3972 23.0761 33.307 23.2732 33.1268C23.662 32.7775 24.062 32.2986 24.5408 31.6056C24.9296 31.0479 24.9916 30.8958 25.0085 30.4563C25.0197 30.2085 25.0254 30.1634 25.0592 30.1183C25.1042 30.0507 25.4141 29.8986 25.5268 29.8817C25.6563 29.8648 25.7408 29.8085 25.7915 29.7239C25.8986 29.538 25.9549 29.1099 25.9155 28.7944C25.9042 28.7099 25.8704 28.5352 25.8423 28.4113C25.7296 27.9493 25.7859 27.7859 26.1296 27.5831C26.231 27.5211 26.2704 27.4873 26.3324 27.3859C26.4507 27.2056 26.6197 27.0873 26.9014 26.9972C27.2845 26.8732 27.6 26.5634 27.7352 26.1803C27.7803 26.0451 27.7859 25.8366 27.7634 25.3183C27.7521 25.0873 27.7521 24.9915 27.7803 24.8056C27.8197 24.5127 27.8085 24.4676 27.662 24.2817C27.4704 24.0394 27.4028 23.8592 27.369 23.5099C27.3521 23.3521 27.3408 23.2845 27.2789 23.1437C27.2225 23.0028 27.2056 22.9465 27.2113 22.8507C27.2113 22.7324 27.2113 22.7268 27.4085 22.3718C27.662 21.9155 27.7577 21.769 28 21.4873C28.5465 20.8507 29.0141 20.4056 29.6451 19.938C30.0338 19.6451 30.2873 19.3803 30.4845 19.0648C31.0817 18.0901 31.4535 17.3521 31.5042 17.0366C31.538 16.8282 31.4986 16.5972 31.4197 16.5352C31.3465 16.4789 31.2732 16.4901 31.0479 16.5803C30.8845 16.6479 30.7606 16.6817 30.4338 16.7437C29.5887 16.9127 29.1831 16.9803 29.0817 16.969C28.8958 16.9521 28.8 16.8394 28.7437 16.5916C28.7268 16.507 28.6986 16.4056 28.6817 16.3718C28.6479 16.2986 28.1634 15.8254 27.7634 15.4704C27.4254 15.1718 27.3408 15.0648 27.2676 14.8282C27.1718 14.5183 27.0817 14.3662 26.8732 14.1521C26.6761 13.9493 26.6366 13.8648 26.6197 13.5662C26.5916 13.1324 26.4845 12.8845 26.2028 12.5803C26.0901 12.462 26.0676 12.4169 26.0169 12.2817C25.9831 12.1915 25.9606 12.1127 25.9606 12.107C25.9606 12.0507 25.8873 11.8986 25.8028 11.7634C25.6507 11.5268 25.3577 10.8789 25.3577 10.7775C25.3577 10.7606 25.4028 10.7324 25.4592 10.7099L25.5606 10.6704L25.6394 10.4394C25.707 10.231 25.7183 10.1859 25.7183 10.0338C25.7183 9.84789 25.7183 9.83099 25.6 9.44225L25.5268 9.19437L25.2113 9.17183C24.9916 9.15493 24.8394 9.13803 24.7099 9.10423C24.569 9.07042 24.4789 9.05916 24.3324 9.05916C24.1296 9.05916 24.0169 9.08169 23.7803 9.1831C23.5887 9.26197 23.493 9.2507 22.507 9.00282L21.662 8.78873L21.5437 8.68169C21.3859 8.52958 21.2676 8.49014 21.0592 8.50141C20.8563 8.51268 20.569 8.60282 20.4789 8.68732C20.3887 8.7662 20.3606 8.83944 20.3437 9.07042C20.3268 9.28451 20.2817 9.41972 20.2197 9.45352C20.1972 9.46479 20.1521 9.47606 20.1183 9.47606C20.0056 9.47606 19.0873 9.11549 18.9803 9.03099C18.9408 8.99718 18.907 8.95211 18.8901 8.89014C18.8282 8.69859 18.6366 8.60845 18.1465 8.53521C17.7408 8.47324 17.4479 8.37747 17.1718 8.20282L17.0197 8.10704L17.0648 8.05634C17.0648 8.05634 17.1606 7.9493 17.2225 7.88169C17.4141 7.66761 17.4366 7.56056 17.3239 7.34085C17.2394 7.17183 17.2394 7.08732 17.3408 6.95775C17.4535 6.81127 17.4254 6.75493 17.2225 6.73803C17.138 6.73239 17.1099 6.72113 17.0873 6.68169C17.0479 6.61972 16.9521 6.56338 16.8845 6.56901C16.8563 6.56901 16.7662 6.59155 16.693 6.61408M30.6648 25.1155C30.5803 25.1662 30.507 25.262 30.3831 25.4817C30.3211 25.5944 30.231 25.7239 30.1859 25.769C30.1408 25.8197 30.107 25.8704 30.1014 25.8873C30.1014 25.9887 29.9437 26.2028 29.8197 26.2704C29.7915 26.2873 29.6056 26.3662 29.4141 26.4507L29.0648 26.5972L28.9803 26.7662C28.9352 26.862 28.8789 26.9916 28.8676 27.0648C28.8282 27.2282 28.8338 27.4761 28.8676 27.6676C28.907 27.8592 28.8901 27.9549 28.7775 28.2028C28.631 28.5296 28.5915 28.7211 28.6197 28.9577C28.6423 29.1493 28.6761 29.2563 28.8 29.5437C28.8789 29.7296 28.9239 29.8141 28.9859 29.8761C29.0817 29.9775 29.2676 30.0958 29.3296 30.0958C29.3521 30.0958 29.4366 30.0676 29.5155 30.0338C29.5944 30 29.7127 29.9606 29.7746 29.9493C29.9155 29.9211 29.9718 29.893 30.0563 29.8085C30.1746 29.6901 30.2479 29.493 30.3887 28.9352C30.4338 28.7493 30.5352 28.3944 30.6085 28.1465C30.7775 27.6 30.862 27.2845 30.9014 27.0141C30.9296 26.8451 30.9521 26.7775 31.0254 26.631L31.1155 26.4451V26.0225C31.1042 25.6507 31.0986 25.5831 31.0592 25.4761C30.9916 25.2676 30.8338 25.0761 30.7437 25.0761C30.7324 25.0761 30.693 25.093 30.6648 25.1099" fill="white"/>
<path fill-rule="evenodd" clip-rule="evenodd" d="M60.4224 3.26801C59.9379 3.37506 59.4985 3.66238 59.1886 4.07365C59.014 4.30463 58.952 4.42294 58.6027 5.17224C58.0506 6.36098 49.6617 24.5075 49.5941 24.8737C49.4758 25.561 49.6899 26.1807 50.2308 26.7046C50.9294 27.3807 51.9885 27.561 52.8166 27.1553C53.2899 26.9187 53.6392 26.5356 53.8983 25.9497C54.2645 25.1328 60.8901 10.7722 60.8901 10.7722L60.9351 10.8624C61.014 11.0145 71.4253 33.5046 71.4985 33.6568C71.9661 34.6145 72.7098 35.1272 73.6337 35.1272C74.6365 35.1272 75.5041 34.4737 75.752 33.5215C75.8534 33.1215 75.8478 32.6032 75.7239 32.1863C75.6619 31.9666 63.0365 4.7497 62.9802 4.63703C62.6365 3.92154 62.1239 3.47646 61.4365 3.29055C61.2112 3.22858 60.6365 3.21731 60.4112 3.26238M90.6591 3.25111C89.8084 3.30182 88.9577 3.43139 88.0732 3.65675C85.583 4.29337 83.6112 5.55534 82.1802 7.43703C81.2281 8.68774 80.6591 10.0004 80.3999 11.5497C80.2422 12.4793 80.2027 13.8089 80.3098 14.2427C80.4901 14.9525 81.0647 15.5497 81.7858 15.7751C82.6647 16.0511 83.707 15.7131 84.2534 14.9694C84.5746 14.5356 84.6591 14.2201 84.6929 13.33C84.7154 12.7497 84.7548 12.4173 84.8675 11.9553C85.0929 11.0258 85.4816 10.2877 86.0788 9.67365C86.383 9.35816 86.5633 9.21168 86.9295 8.96943C87.5999 8.52999 88.1689 8.2483 88.8844 8.01168C89.7013 7.74126 90.4675 7.62858 91.2901 7.65112C92.3323 7.68492 93.3464 7.93281 94.4168 8.41168C95.8365 9.0483 96.8055 10.0568 97.2619 11.3694C97.6844 12.5976 97.7577 13.9779 97.476 15.2962C97.2732 16.2258 97.014 16.7948 96.5295 17.3469C96.1689 17.7582 95.5548 18.1863 94.7041 18.6145C93.7295 19.1046 93.0703 19.3525 91.3408 19.8596C88.2084 20.7835 86.5351 21.4821 85.0478 22.4849C84.3943 22.9244 83.9154 23.3244 83.3464 23.9046C82.2422 25.0314 80.9182 27.9046 80.9182 27.9046C80.5746 28.9187 80.3717 30.023 80.2872 31.3525C80.1915 32.8173 80.2084 33.223 80.3717 33.6793C80.6365 34.4004 81.2168 34.8962 82.0055 35.0708L82.2309 35.1215H91.7013L91.876 35.0765C92.3098 34.9638 92.6422 34.761 92.9464 34.4399C93.4929 33.8652 93.6844 33.0821 93.4591 32.3103C93.245 31.5666 92.6534 30.9976 91.8816 30.7891C91.6337 30.7215 84.8055 30.7046 84.8055 30.7046L84.8224 30.6032C84.9971 29.3582 85.4703 28.2314 86.2027 27.3413C86.8168 26.592 87.6562 25.9722 88.7041 25.4934C89.7295 25.0258 90.8619 24.6201 92.7492 24.0568C94.5858 23.5103 95.6337 23.1159 96.7098 22.5863C97.2957 22.299 97.6563 22.0906 98.1182 21.7807C100.113 20.4511 101.335 18.6032 101.82 16.192C102.186 14.3835 102.118 12.13 101.651 10.4793C100.946 7.98351 99.3746 6.08492 96.8731 4.69337C95.414 3.8821 93.814 3.38632 92.2196 3.25675C91.8309 3.22294 91.0196 3.21168 90.6534 3.23421M117.606 3.22858C114.856 3.36379 112.535 4.11308 110.783 5.42576C110.051 5.97224 109.375 6.65957 108.868 7.36379C108.073 8.47365 107.611 9.70182 107.442 11.1384C107.391 11.5497 107.38 12.4229 107.408 12.8906C107.476 13.8708 107.622 14.6145 107.887 15.3244C108.653 17.3751 110.349 18.9694 112.929 20.0624C114.079 20.5525 115.104 20.8737 117.606 21.5384C120.631 22.3384 121.927 22.7835 122.963 23.3694C123.352 23.5891 123.594 23.7638 123.853 24.0173C124.276 24.423 124.529 24.868 124.659 25.4314C124.715 25.668 124.738 26.2708 124.699 26.592C124.563 27.8483 123.977 28.7891 122.89 29.5046C122.051 30.0568 120.851 30.4455 119.431 30.6145C119.099 30.6539 118.918 30.6652 118.304 30.6652C117.842 30.6652 117.47 30.6539 117.296 30.637C115.341 30.4399 113.729 29.899 112.473 29.0258C112.129 28.7891 111.853 28.5525 111.476 28.1807C111.07 27.7863 110.935 27.6793 110.704 27.5835C110.09 27.33 109.166 27.4483 108.507 27.8708C108.355 27.9666 108.107 28.2089 107.994 28.3666C107.577 28.9469 107.487 29.8089 107.763 30.4793C107.899 30.8117 108.101 31.0821 108.496 31.4652C109.707 32.6427 110.997 33.4596 112.637 34.0906C114.546 34.823 116.434 35.1441 118.586 35.1103C120.732 35.0708 122.451 34.6821 124.191 33.8314C125.645 33.1215 126.67 32.3103 127.499 31.2117C128.377 30.0455 128.896 28.7553 129.104 27.2173C129.172 26.7384 129.177 25.6399 129.115 25.1553C128.997 24.192 128.8 23.499 128.434 22.761C127.887 21.6568 127.048 20.7328 125.842 19.9215C124.879 19.2737 123.865 18.806 122.214 18.2539C121.375 17.9722 120.704 17.7807 119.408 17.4539C118.045 17.1046 117.538 16.9694 116.817 16.7441C114.569 16.0455 113.279 15.3976 112.586 14.6032C111.932 13.8539 111.707 12.9356 111.865 11.6849C111.949 11.0258 112.152 10.4624 112.501 9.93281C112.721 9.60041 113.16 9.16098 113.527 8.91872C114.439 8.31027 115.859 7.85394 117.301 7.70182C117.476 7.68492 117.91 7.66239 118.259 7.65112C118.828 7.63422 118.913 7.62858 119.099 7.57788C119.346 7.51027 119.499 7.4483 119.707 7.31309C120.124 7.04267 120.501 6.50746 120.637 5.99478C120.687 5.80323 120.704 5.37506 120.67 5.16097C120.575 4.55815 120.186 3.93844 119.707 3.61168C119.465 3.4483 119.2 3.34125 118.89 3.27928C118.732 3.24548 117.944 3.22294 117.611 3.23984M157.115 3.23984C156.614 3.30182 156.18 3.52153 155.825 3.899C155.56 4.17506 155.453 4.37224 155.2 5.00886C154.608 6.50746 146.265 26.9807 146.265 26.9807C146.265 26.9807 140.513 12.7948 140.462 12.6877C140.096 11.9497 139.482 11.5215 138.704 11.4652C138 11.4089 137.189 11.7525 136.76 12.2821C136.417 12.7103 136.27 13.1722 136.293 13.7413C136.315 14.2427 144.197 33.6793 144.282 33.8483C144.411 34.1075 144.546 34.299 144.738 34.4906C145.611 35.3751 146.991 35.3525 147.865 34.4455C148.051 34.2483 148.242 33.9779 148.338 33.7638C148.411 33.606 159.538 6.08492 159.6 5.87084C159.639 5.72999 159.679 5.65675 159.679 5.34689C159.707 5.34689 159.651 4.96942 159.651 4.96942L159.572 4.7497C159.47 4.46238 159.324 4.22013 159.11 3.99477C158.715 3.57787 158.225 3.31872 157.673 3.23984C157.515 3.21731 157.251 3.21168 157.115 3.22858" fill="white"/>
<path d="M126.709 10.8678C127.945 10.8678 128.946 9.86642 128.946 8.63115C128.946 7.39588 127.945 6.39453 126.709 6.39453C125.474 6.39453 124.473 7.39588 124.473 8.63115C124.473 9.86642 125.474 10.8678 126.709 10.8678Z" fill="white"/>
<path d="M99.9212 35.1607C101.156 35.1607 102.158 34.1594 102.158 32.9241C102.158 31.6889 101.156 30.6875 99.9212 30.6875C98.6857 30.6875 97.6846 31.6889 97.6846 32.9241C97.6846 34.1594 98.6857 35.1607 99.9212 35.1607Z" fill="white"/>
<path d="M135.211 7.69591C136.447 7.69591 137.448 6.6945 137.448 5.45928C137.448 4.22403 136.447 3.22266 135.211 3.22266C133.976 3.22266 132.975 4.22403 132.975 5.45928C132.975 6.6945 133.976 7.69591 135.211 7.69591Z" fill="white"/>
<path d="M48.2474 35.0934C49.4826 35.0934 50.484 34.092 50.484 32.8567C50.484 31.6215 49.4826 30.6201 48.2474 30.6201C47.0122 30.6201 46.0107 31.6215 46.0107 32.8567C46.0107 34.092 47.0122 35.0934 48.2474 35.0934Z" fill="white"/>
</g>
</svg>
