<svg width="280" height="40" viewBox="0 0 280 40" fill="none" xmlns="http://www.w3.org/2000/svg">
<g clip-path="url(#clip0_3_970)">
<g clip-path="url(#clip1_3_970)">
<g clip-path="url(#clip2_3_970)">
<path d="M155.935 31.2493C148.243 36.9191 137.094 39.9441 127.494 39.9441C114.035 39.9441 101.917 34.9658 92.7499 26.6859C92.0297 26.0348 92.675 25.1474 93.5393 25.6545C103.433 31.4107 115.665 34.8736 128.301 34.8736C136.823 34.8736 146.198 33.1104 154.818 29.4516C156.12 28.8985 157.209 30.3044 155.935 31.2493Z" fill="#FF9900"/>
<path d="M159.134 27.5903C158.154 26.3342 152.634 26.9968 150.157 27.2906C149.402 27.3828 149.287 26.726 149.967 26.2535C154.363 23.1593 161.577 24.0524 162.418 25.0896C163.259 26.1325 162.199 33.3637 158.068 36.8151C157.434 37.3452 156.829 37.0629 157.111 36.3599C158.039 34.0436 160.119 28.8521 159.134 27.5903Z" fill="#FF9900"/>
<path d="M150.329 4.40991V1.40218C150.329 0.946984 150.675 0.641602 151.089 0.641602H164.555C164.987 0.641602 165.333 0.952747 165.333 1.40218V3.97777C165.327 4.40991 164.964 4.97458 164.319 5.86768L157.341 15.8301C159.934 15.7667 162.671 16.1528 165.022 17.478C165.552 17.7776 165.696 18.2155 165.736 18.6477V21.8571C165.736 22.295 165.252 22.8078 164.745 22.5427C160.602 20.3705 155.1 20.1343 150.519 22.5658C150.052 22.8193 149.562 22.3123 149.562 21.8744V18.8263C149.562 18.3365 149.568 17.501 150.058 16.7578L158.142 5.16473H151.107C150.675 5.16473 150.329 4.85935 150.329 4.40991Z" fill="#221F1F"/>
<path d="M101.208 23.1769H97.1116C96.7198 23.1481 96.4087 22.8542 96.3799 22.4797V1.45435C96.3799 1.03373 96.7314 0.69953 97.1693 0.69953H100.989C101.387 0.716804 101.704 1.0222 101.733 1.40249V4.15094H101.808C102.804 1.49468 104.677 0.255859 107.201 0.255859C109.765 0.255859 111.367 1.49468 112.519 4.15094C113.51 1.49468 115.763 0.255859 118.177 0.255859C119.894 0.255859 121.773 0.964578 122.919 2.55487C124.216 4.32379 123.951 6.89362 123.951 9.14654L123.945 22.4163C123.945 22.8369 123.594 23.1769 123.156 23.1769H119.065C118.656 23.1481 118.327 22.8196 118.327 22.4163V11.2727C118.327 10.3854 118.408 8.17277 118.212 7.33153C117.907 5.91985 116.99 5.52227 115.803 5.52227C114.812 5.52227 113.775 6.1849 113.355 7.2451C112.934 8.3053 112.974 10.08 112.974 11.2727V22.4163C112.974 22.8369 112.623 23.1769 112.185 23.1769H108.094C107.679 23.1481 107.356 22.8196 107.356 22.4163L107.351 11.2727C107.351 8.92759 107.737 5.47618 104.827 5.47618C101.883 5.47618 101.998 8.84115 101.998 11.2727V22.4163C101.998 22.8369 101.646 23.1769 101.208 23.1769Z" fill="#221F1F"/>
<path d="M176.926 0.255859C183.005 0.255859 186.295 5.47618 186.295 12.1139C186.295 18.527 182.659 23.6148 176.926 23.6148C170.957 23.6148 167.707 18.3945 167.707 11.8892C167.707 5.34366 170.997 0.255859 176.926 0.255859ZM176.961 4.54851C173.941 4.54851 173.751 8.66253 173.751 11.2266C173.751 13.7964 173.711 19.2818 176.926 19.2818C180.101 19.2818 180.251 14.8566 180.251 12.16C180.251 10.3854 180.176 8.26496 179.64 6.58247C179.179 5.11894 178.263 4.54851 176.961 4.54851Z" fill="#221F1F"/>
<path d="M194.177 23.1769H190.098C189.689 23.1481 189.36 22.8196 189.36 22.4163L189.354 1.3852C189.389 0.99915 189.729 0.69953 190.144 0.69953H193.941C194.298 0.716804 194.592 0.958818 194.673 1.28725V4.50241H194.748C195.894 1.6272 197.502 0.255859 200.331 0.255859C202.169 0.255859 203.961 0.918484 205.113 2.73349C206.185 4.41598 206.185 7.2451 206.185 9.27906V22.5143C206.139 22.883 205.799 23.1769 205.396 23.1769H201.287C200.913 23.1481 200.602 22.8715 200.561 22.5143V11.0941C200.561 8.79506 200.827 5.43008 197.997 5.43008C197.001 5.43008 196.084 6.09847 195.629 7.11257C195.053 8.39749 194.978 9.67664 194.978 11.0941V22.4163C194.972 22.8369 194.615 23.1769 194.177 23.1769Z" fill="#221F1F"/>
<path d="M139.595 13.1338V12.2465C136.633 12.2465 133.504 12.8803 133.504 16.372C133.504 18.1409 134.42 19.3394 135.993 19.3394C137.146 19.3394 138.177 18.6307 138.828 17.4783C139.635 16.0609 139.595 14.7299 139.595 13.1338ZM143.726 23.1193C143.455 23.3613 143.063 23.3785 142.758 23.2172C141.398 22.0879 141.156 21.5635 140.407 20.4861C138.16 22.7793 136.57 23.465 133.654 23.465C130.208 23.465 127.523 21.3388 127.523 17.0807C127.523 13.7561 129.327 11.4917 131.891 10.3854C134.115 9.40583 137.221 9.23298 139.595 8.96217V8.43207C139.595 7.45829 139.67 6.30591 139.099 5.46467C138.598 4.70985 137.641 4.3987 136.8 4.3987C135.239 4.3987 133.844 5.19961 133.504 6.85905C133.435 7.22782 133.164 7.59082 132.796 7.60811L128.82 7.18172C128.486 7.10682 128.117 6.83601 128.209 6.3232C129.125 1.50621 133.476 0.0541992 137.371 0.0541992C139.364 0.0541992 141.969 0.584298 143.542 2.09393C145.535 3.95503 145.345 6.43843 145.345 9.14079V15.525C145.345 17.4437 146.14 18.285 146.889 19.3221C147.154 19.6909 147.212 20.1346 146.878 20.4111C146.042 21.1083 144.556 22.4048 143.738 23.1308L143.726 23.1193Z" fill="#221F1F"/>
<path d="M85.8877 13.1338V12.2465C82.926 12.2465 79.7973 12.8803 79.7973 16.372C79.7973 18.1409 80.7134 19.3394 82.2865 19.3394C83.4388 19.3394 84.4702 18.6307 85.1213 17.4783C85.928 16.0609 85.8877 14.7299 85.8877 13.1338ZM90.019 23.1193C89.7482 23.3613 89.3564 23.3785 89.051 23.2172C87.6912 22.0879 87.4492 21.5635 86.7001 20.4861C84.453 22.7793 82.8627 23.465 79.9471 23.465C76.5015 23.465 73.8164 21.3388 73.8164 17.0807C73.8164 13.7561 75.6199 11.4917 78.184 10.3854C80.4081 9.40583 83.5138 9.23298 85.8877 8.96217V8.43207C85.8877 7.45829 85.9626 6.30591 85.3922 5.46467C84.8909 4.70985 83.9344 4.3987 83.0931 4.3987C81.5316 4.3987 80.1373 5.19961 79.7973 6.85905C79.7282 7.22782 79.4573 7.59082 79.0886 7.60811L75.1128 7.18172C74.7787 7.10682 74.4099 6.83601 74.5021 6.3232C75.4182 1.50621 79.7685 0.0541992 83.6636 0.0541992C85.6572 0.0541992 88.2616 0.584298 89.8346 2.09393C91.8282 3.95503 91.6381 6.43843 91.6381 9.14079V15.525C91.6381 17.4437 92.4332 18.285 93.1823 19.3221C93.4473 19.6909 93.505 20.1346 93.1708 20.4111C92.3353 21.1083 90.8487 22.4048 90.0305 23.1308L90.019 23.1193Z" fill="#221F1F"/>
</g>
</g>
</g>
<defs>
<clipPath id="clip0_3_970">
<rect width="132.52" height="40" fill="white" transform="translate(73.7402)"/>
</clipPath>
<clipPath id="clip1_3_970">
<rect width="132.52" height="40" fill="white" transform="translate(73.7402)"/>
</clipPath>
<clipPath id="clip2_3_970">
<rect width="132.527" height="40" fill="white" transform="translate(73.7363)"/>
</clipPath>
</defs>
</svg>
