<svg width="48" height="48" viewBox="0 0 48 48" fill="none" xmlns="http://www.w3.org/2000/svg">
<rect width="48" height="48" rx="6" fill="#6366F1"/>
<path d="M33 24C33 26.3869 32.0518 28.6761 30.364 30.364C28.6761 32.0518 26.3869 33 24 33M33 24C33 21.6131 32.0518 19.3239 30.364 17.636C28.6761 15.9482 26.3869 15 24 15M33 24H15M24 33C21.6131 33 19.3239 32.0518 17.636 30.364C15.9482 28.6761 15 26.3869 15 24M24 33V15M24 15C21.6131 15 19.3239 15.9482 17.636 17.636C15.9482 19.3239 15 21.6131 15 24" stroke="white" stroke-width="2" stroke-linecap="round" stroke-linejoin="round"/>
</svg>
